<svg width="148" height="90" viewBox="0 0 148 90" fill="none" xmlns="http://www.w3.org/2000/svg">
<path d="M34.992 23.495H62.847V25.714H37.546V42.413H61.338V44.632H37.546V62.966H63.137V65.185H34.992V23.495V23.495ZM65.342 23.495H68.302L81.417 41.829L94.822 23.495L113.055 0.207031L83.1 43.756L98.536 65.185H95.46L81.417 45.683L67.316 65.185H64.298L79.85 43.756L65.343 23.495H65.342ZM99.639 25.714V23.495H131.381V25.714H116.758V65.184H114.204V25.714H99.64H99.639ZM0.144989 23.495H3.33699L47.348 89.498L29.16 65.185L2.81399 26.648L2.69799 65.185H0.144989V23.495V23.495ZM131.125 62.296C130.602 62.296 130.211 61.891 130.211 61.368C130.211 60.844 130.602 60.439 131.124 60.439C131.652 60.439 132.037 60.844 132.037 61.368C132.037 61.891 131.652 62.296 131.124 62.296H131.125ZM133.633 59.853H135C135.019 60.595 135.56 61.093 136.354 61.093C137.242 61.093 137.745 60.558 137.745 59.554V53.198H139.136V59.56C139.136 61.368 138.093 62.409 136.366 62.409C134.746 62.409 133.634 61.399 133.634 59.853H133.633ZM140.955 59.773H142.334C142.452 60.626 143.284 61.168 144.483 61.168C145.6 61.168 146.42 60.588 146.42 59.791C146.42 59.106 145.899 58.694 144.712 58.414L143.557 58.134C141.937 57.754 141.197 56.968 141.197 55.647C141.197 54.045 142.501 52.979 144.457 52.979C146.277 52.979 147.607 54.045 147.687 55.559H146.333C146.203 54.731 145.483 54.213 144.439 54.213C143.339 54.213 142.607 54.743 142.607 55.553C142.607 56.195 143.079 56.563 144.247 56.837L145.234 57.08C147.072 57.51 147.83 58.258 147.83 59.61C147.83 61.33 146.5 62.409 144.377 62.409C142.39 62.409 141.054 61.38 140.955 59.772V59.773Z" fill="black"/>
</svg>
