<svg xmlns="http://www.w3.org/2000/svg" viewBox="0 0 32 32.05"><title>lmAtivo 2</title><g id="Camada_2" data-name="Camada 2"><g id="Camada_1-2" data-name="Camada 1"><path d="M1.34,21.7A9.21,9.21,0,0,1,1,20.57c0-.18-.17-.37-.1-.56a1.08,1.08,0,0,1,.45-.56.09.09,0,0,1,.1,0,1,1,0,0,1,.45.56c.07.19,0,.38-.1.56a7.75,7.75,0,0,1-.35,1.13.05.05,0,0,1-.07,0S1.35,21.71,1.34,21.7Z"/><path d="M2.73,21.7c-.14-.87-.26-1.74-.35-2.62a5.19,5.19,0,0,1-.1-1.3,3.36,3.36,0,0,1,.45-1.31.06.06,0,0,1,.08,0l0,0a3.06,3.06,0,0,1,.45,1.31,4.4,4.4,0,0,1-.1,1.3c-.09.88-.2,1.75-.35,2.62a0,0,0,0,1-.06,0S2.74,21.72,2.73,21.7Z"/><path d="M4.12,19.82c-.14-1.05-.26-2.11-.35-3.16a7.73,7.73,0,0,1-.1-1.59,4.71,4.71,0,0,1,.45-1.58.07.07,0,0,1,.08,0l0,0a4.29,4.29,0,0,1,.45,1.58,6.55,6.55,0,0,1-.1,1.59c-.08,1.05-.2,2.11-.35,3.16a0,0,0,0,1,0,.05A.08.08,0,0,1,4.12,19.82Z"/><path d="M5.52,18.11c-.15-1.27-.26-2.53-.35-3.8a9.22,9.22,0,0,1-.1-1.89,5.91,5.91,0,0,1,.45-1.9.05.05,0,0,1,.07,0l0,0a6.49,6.49,0,0,1,.45,1.9A10.89,10.89,0,0,1,6,14.31c-.09,1.27-.21,2.53-.35,3.8a.07.07,0,0,1-.06,0A0,0,0,0,1,5.52,18.11Z"/><path d="M6.91,16.62c-.15-1.52-.26-3-.35-4.54a13.28,13.28,0,0,1-.1-2.27,8.31,8.31,0,0,1,.45-2.27.05.05,0,0,1,.07,0l0,0a9.13,9.13,0,0,1,.45,2.27,15.68,15.68,0,0,1-.1,2.27c-.09,1.51-.21,3-.35,4.54,0,0,0,0-.06,0A0,0,0,0,1,6.91,16.62Z"/><path d="M8.3,15.74C8.16,13.88,8,12,8,10.15a23.65,23.65,0,0,1-.1-2.79,12.87,12.87,0,0,1,.45-2.8.06.06,0,0,1,.06,0,.08.08,0,0,1,0,0,13.5,13.5,0,0,1,.45,2.8,23.65,23.65,0,0,1-.1,2.79c-.09,1.87-.21,3.73-.35,5.59a.05.05,0,0,1-.05,0A0,0,0,0,1,8.3,15.74Z"/><path d="M9.69,17.41c-.14-1.74-.26-3.48-.35-5.22a20.71,20.71,0,0,1-.1-2.61A11.89,11.89,0,0,1,9.69,7a.06.06,0,0,1,.07,0l0,0a11.33,11.33,0,0,1,.45,2.62,20.71,20.71,0,0,1-.1,2.61c-.09,1.74-.2,3.48-.35,5.22a.05.05,0,0,1,0,.05S9.69,17.44,9.69,17.41Z"/><path d="M11.08,20c-.14-1.67-.26-3.34-.35-5a19,19,0,0,1-.1-2.5,11,11,0,0,1,.45-2.51.06.06,0,0,1,.07,0,0,0,0,0,1,0,0,10,10,0,0,1,.45,2.51,16.09,16.09,0,0,1-.1,2.5c-.09,1.67-.2,3.34-.35,5a0,0,0,0,1-.1,0Z"/><path d="M12.47,22.77c-.14-1.64-.26-3.28-.35-4.92a18.4,18.4,0,0,1-.1-2.46,10.62,10.62,0,0,1,.45-2.47.05.05,0,0,1,.07,0,0,0,0,0,1,0,0A9.67,9.67,0,0,1,13,15.39a15.58,15.58,0,0,1-.1,2.46c-.08,1.64-.2,3.28-.35,4.92a0,0,0,0,1-.05.05S12.48,22.8,12.47,22.77Z"/><path d="M13.87,25.74c-.15-1.64-.27-3.28-.35-4.92a15.58,15.58,0,0,1-.1-2.46,9.67,9.67,0,0,1,.45-2.46,0,0,0,0,1,.06,0s0,0,0,0a10.63,10.63,0,0,1,.45,2.46,18.4,18.4,0,0,1-.1,2.46c-.09,1.64-.21,3.28-.35,4.92a.06.06,0,0,1-.06.05A0,0,0,0,1,13.87,25.74Z"/><path d="M15.26,28.82c-.15-1.65-.26-3.31-.35-5a15.88,15.88,0,0,1-.1-2.48,9.9,9.9,0,0,1,.45-2.49,0,0,0,0,1,.06,0s0,0,0,0a10.88,10.88,0,0,1,.45,2.49,18.77,18.77,0,0,1-.1,2.48c-.09,1.66-.21,3.32-.35,5a.06.06,0,0,1-.06.05A0,0,0,0,1,15.26,28.82Z"/><path d="M16.65,32c-.15-1.71-.26-3.42-.35-5.13a19.93,19.93,0,0,1-.1-2.56,11,11,0,0,1,.45-2.57.05.05,0,0,1,.07,0s0,0,0,0a11.55,11.55,0,0,1,.45,2.57,19.93,19.93,0,0,1-.1,2.56c-.09,1.71-.21,3.42-.35,5.13a.06.06,0,0,1-.06,0A.07.07,0,0,1,16.65,32Z"/><path d="M18,28.3c-.14-1.59-.26-3.18-.35-4.77a17.3,17.3,0,0,1-.1-2.38A10.07,10.07,0,0,1,18,18.76a.05.05,0,0,1,.07,0,0,0,0,0,1,0,0,9.59,9.59,0,0,1,.45,2.39,17.3,17.3,0,0,1-.1,2.38c-.09,1.59-.2,3.18-.35,4.77,0,0,0,0-.05,0A0,0,0,0,1,18,28.3Z"/><path d="M19.43,24.93c-.14-1.53-.26-3.05-.35-4.57a16,16,0,0,1-.1-2.29,9.29,9.29,0,0,1,.45-2.29.05.05,0,0,1,.07,0l0,0A8.45,8.45,0,0,1,20,18.07a13.55,13.55,0,0,1-.1,2.29c-.09,1.52-.2,3-.35,4.57,0,0,0,.05-.05,0A0,0,0,0,1,19.43,24.93Z"/><path d="M20.82,22.05c-.14-1.54-.26-3.08-.35-4.62a16.38,16.38,0,0,1-.1-2.32,9.44,9.44,0,0,1,.45-2.31.06.06,0,0,1,.07,0s0,0,0,0a8.59,8.59,0,0,1,.45,2.31,13.86,13.86,0,0,1-.1,2.32c-.08,1.54-.2,3.08-.35,4.62,0,0,0,.05-.05,0S20.83,22.07,20.82,22.05Z"/><path d="M22.22,20.47c-.15-1.77-.27-3.55-.35-5.32a18.26,18.26,0,0,1-.1-2.66,11.3,11.3,0,0,1,.45-2.67s0,0,.06,0,0,0,0,0a12.43,12.43,0,0,1,.45,2.67,21.58,21.58,0,0,1-.1,2.66c-.09,1.77-.21,3.55-.35,5.32a.06.06,0,0,1-.06.05A.07.07,0,0,1,22.22,20.47Z"/><path d="M23.61,21.3c-.15-1.42-.26-2.84-.35-4.27a11.7,11.7,0,0,1-.1-2.13,7.44,7.44,0,0,1,.45-2.14.06.06,0,0,1,.07,0l0,0a8.18,8.18,0,0,1,.45,2.14,13.81,13.81,0,0,1-.1,2.13c-.09,1.43-.21,2.85-.35,4.27a.06.06,0,0,1-.06.05A0,0,0,0,1,23.61,21.3Z"/><path d="M25,22.46c-.15-1.12-.26-2.24-.35-3.36a8.62,8.62,0,0,1-.1-1.68A5,5,0,0,1,25,15.74a0,0,0,0,1,.07,0l0,0a5.25,5.25,0,0,1,.45,1.68,8.62,8.62,0,0,1-.1,1.68c-.09,1.12-.21,2.24-.35,3.36,0,0,0,0-.06,0A0,0,0,0,1,25,22.46Z"/><path d="M26.39,23.7c-.14-.83-.26-1.66-.35-2.49a4.73,4.73,0,0,1-.1-1.24,3,3,0,0,1,.45-1.25.05.05,0,0,1,.08,0h0A3,3,0,0,1,26.94,20a4.73,4.73,0,0,1-.1,1.24c-.09.83-.21,1.66-.35,2.49,0,0,0,0-.06,0A0,0,0,0,1,26.39,23.7Z"/><path d="M27.78,25c-.14-.55-.26-1.1-.35-1.65a2.08,2.08,0,0,1-.1-.82,1.73,1.73,0,0,1,.45-.82.07.07,0,0,1,.1,0,1.65,1.65,0,0,1,.45.82,1.77,1.77,0,0,1-.1.82A16.17,16.17,0,0,1,27.88,25a.05.05,0,0,1-.06,0A.08.08,0,0,1,27.78,25Z"/><path d="M29.17,26.33a5.88,5.88,0,0,1-.35-.83c0-.13-.17-.27-.1-.41a1,1,0,0,1,.45-.41.12.12,0,0,1,.1,0,.87.87,0,0,1,.45.41c.08.14,0,.28-.1.41a4.9,4.9,0,0,1-.35.83,0,0,0,0,1-.07,0Z"/><path d="M10.6,0C9.9,2,9.11,3.91,8.3,5.84S6.62,9.66,5.75,11.56,4,15.33,3,17.18L1.55,20C1,20.87.54,21.8,0,22.69c.34-1,.74-2,1.1-2.94l1.2-2.89C3.1,14.93,4,13,4.85,11.14S6.64,7.36,7.6,5.51,9.53,1.8,10.6,0Z"/><path d="M21.26,7.63c1.08,1.83,2.06,3.71,3,5.59s1.89,3.79,2.79,5.7,1.77,3.84,2.58,5.79l1.22,2.94c.37,1,.78,2,1.12,3-.55-.91-1-1.85-1.56-2.78L29,25c-1-1.88-1.89-3.79-2.79-5.7s-1.77-3.84-2.58-5.8S22,9.64,21.26,7.63Z"/></g></g></svg>